HIERARCHY
ROOT Hips
{
    OFFSET   0.000000   0.000000   0.000000
    CHANNELS 6 Xposition Yposition Zposition Zrotation Xrotation Yrotation
    JOINT Chest
    {
        OFFSET   0.000000   8.007230   0.000000
        CHANNELS 3 Zrotation Xrotation Yrotation
        JOINT Chest2
        {
            OFFSET   0.000000  22.077100   0.000000
            CHANNELS 3 Zrotation Xrotation Yrotation
            JOINT Neck
            {
                OFFSET   0.000000  23.255100   0.000000
                CHANNELS 3 Zrotation Xrotation Yrotation
                JOINT Head
                {
                    OFFSET   0.000000  14.370100   1.956600
                    CHANNELS 3 Zrotation Xrotation Yrotation
                    End Site
                    {
                        OFFSET   0.000000  19.566000   0.000000
                    }
                }
            }
            JOINT LeftCollar
            {
                OFFSET   3.911900  19.017000  -0.467063
                CHANNELS 3 Zrotation Xrotation Yrotation
                JOINT LeftShoulder
                {
                    OFFSET  10.383700   0.000000   0.000000
                    CHANNELS 3 Zrotation Xrotation Yrotation
                    JOINT LeftElbow
                    {
                        OFFSET  26.662100   0.001193   0.000980
                        CHANNELS 3 Zrotation Xrotation Yrotation
                        JOINT LeftWrist
                        {
                            OFFSET  28.869000  -0.000059  -0.000082
                            CHANNELS 3 Zrotation Xrotation Yrotation
                            JOINT LeftFinger0
                            {
                                OFFSET   2.044650  -2.323450   3.252850
                                CHANNELS 3 Zrotation Xrotation Yrotation
                                JOINT LeftFinger01
                                {
                                    OFFSET   3.088130   0.000000   0.000000
                                    CHANNELS 3 Zrotation Xrotation Yrotation
                                    JOINT LeftFinger02
                                    {
                                        OFFSET   2.639460   0.000000   0.000000
                                        CHANNELS 3 Zrotation Xrotation Yrotation
                                        End Site
                                        {
                                            OFFSET   2.582190   0.000000   0.000000
                                        }
                                    }
                                }
                            }
                            JOINT LeftFinger1
                            {
                                OFFSET   8.364480   0.000000   3.252850
                                CHANNELS 3 Zrotation Xrotation Yrotation
                                JOINT LeftFinger11
                                {
                                    OFFSET   4.646930   0.000000   0.000000
                                    CHANNELS 3 Zrotation Xrotation Yrotation
                                    JOINT LeftFinger12
                                    {
                                        OFFSET   2.323470   0.000000   0.000000
                                        CHANNELS 3 Zrotation Xrotation Yrotation
                                        End Site
                                        {
                                            OFFSET   2.273050   0.000000   0.000000
                                        }
                                    }
                                }
                            }
                            JOINT LeftFinger2
                            {
                                OFFSET   8.364490   0.000016   1.078090
                                CHANNELS 3 Zrotation Xrotation Yrotation
                                JOINT LeftFinger21
                                {
                                    OFFSET   5.111610   0.000000   0.000000
                                    CHANNELS 3 Zrotation Xrotation Yrotation
                                    JOINT LeftFinger22
                                    {
                                        OFFSET   2.788150   0.000016   0.000000
                                        CHANNELS 3 Zrotation Xrotation Yrotation
                                        End Site
                                        {
                                            OFFSET   2.727660   0.000000   0.000000
                                        }
                                    }
                                }
                            }
                            JOINT LeftFinger3
                            {
                                OFFSET   7.899780   0.000015  -1.078090
                                CHANNELS 3 Zrotation Xrotation Yrotation
                                JOINT LeftFinger31
                                {
                                    OFFSET   4.646930   0.000000   0.000000
                                    CHANNELS 3 Zrotation Xrotation Yrotation
                                    JOINT LeftFinger32
                                    {
                                        OFFSET   2.323470   0.000000   0.000000
                                        CHANNELS 3 Zrotation Xrotation Yrotation
                                        End Site
                                        {
                                            OFFSET   2.273050   0.000000   0.000000
                                        }
                                    }
                                }
                            }
                            JOINT LeftFinger4
                            {
                                OFFSET   7.435090   0.000000  -3.252850
                                CHANNELS 3 Zrotation Xrotation Yrotation
                                JOINT LeftFinger41
                                {
                                    OFFSET   3.717550   0.000000   0.000000
                                    CHANNELS 3 Zrotation Xrotation Yrotation
                                    JOINT LeftFinger42
                                    {
                                        OFFSET   1.858770   0.000000   0.000000
                                        CHANNELS 3 Zrotation Xrotation Yrotation
                                        End Site
                                        {
                                            OFFSET   1.818440   0.000000   0.000000
                                        }
                                    }
                                }
                            }
                        }
                    }
                }
            }
            JOINT RightCollar
            {
                OFFSET  -3.911910  19.017000  -0.467062
                CHANNELS 3 Zrotation Xrotation Yrotation
                JOINT RightShoulder
                {
                    OFFSET -10.383700   0.000014   0.000000
                    CHANNELS 3 Zrotation Xrotation Yrotation
                    JOINT RightElbow
                    {
                        OFFSET -26.662100   0.001225   0.001091
                        CHANNELS 3 Zrotation Xrotation Yrotation
                        JOINT RightWrist
                        {
                            OFFSET -28.869000  -0.000020  -0.000085
                            CHANNELS 3 Zrotation Xrotation Yrotation
                            JOINT RightFinger0
                            {
                                OFFSET  -2.044650  -2.323490   3.252850
                                CHANNELS 3 Zrotation Xrotation Yrotation
                                JOINT RightFinger01
                                {
                                    OFFSET  -3.088130   0.000000   0.000000
                                    CHANNELS 3 Zrotation Xrotation Yrotation
                                    JOINT RightFinger02
                                    {
                                        OFFSET  -2.639460   0.000000   0.000000
                                        CHANNELS 3 Zrotation Xrotation Yrotation
                                        End Site
                                        {
                                            OFFSET  -2.582190   0.000000   0.000000
                                        }
                                    }
                                }
                            }
                            JOINT RightFinger1
                            {
                                OFFSET  -8.364480   0.000000   3.252850
                                CHANNELS 3 Zrotation Xrotation Yrotation
                                JOINT RightFinger11
                                {
                                    OFFSET  -4.646930   0.000000   0.000000
                                    CHANNELS 3 Zrotation Xrotation Yrotation
                                    JOINT RightFinger12
                                    {
                                        OFFSET  -2.323470   0.000000   0.000000
                                        CHANNELS 3 Zrotation Xrotation Yrotation
                                        End Site
                                        {
                                            OFFSET  -2.273050   0.000000   0.000000
                                        }
                                    }
                                }
                            }
                            JOINT RightFinger2
                            {
                                OFFSET  -8.364480   0.000000   1.078090
                                CHANNELS 3 Zrotation Xrotation Yrotation
                                JOINT RightFinger21
                                {
                                    OFFSET  -5.111620   0.000000   0.000000
                                    CHANNELS 3 Zrotation Xrotation Yrotation
                                    JOINT RightFinger22
                                    {
                                        OFFSET  -2.788160   0.000000   0.000000
                                        CHANNELS 3 Zrotation Xrotation Yrotation
                                        End Site
                                        {
                                            OFFSET  -2.727660   0.000000   0.000000
                                        }
                                    }
                                }
                            }
                            JOINT RightFinger3
                            {
                                OFFSET  -7.899780   0.000000  -1.078090
                                CHANNELS 3 Zrotation Xrotation Yrotation
                                JOINT RightFinger31
                                {
                                    OFFSET  -4.646930   0.000000   0.000000
                                    CHANNELS 3 Zrotation Xrotation Yrotation
                                    JOINT RightFinger32
                                    {
                                        OFFSET  -2.323470   0.000000   0.000000
                                        CHANNELS 3 Zrotation Xrotation Yrotation
                                        End Site
                                        {
                                            OFFSET  -2.273050   0.000000   0.000000
                                        }
                                    }
                                }
                            }
                            JOINT RightFinger4
                            {
                                OFFSET  -7.435090   0.000000  -3.252850
                                CHANNELS 3 Zrotation Xrotation Yrotation
                                JOINT RightFinger41
                                {
                                    OFFSET  -3.717550   0.000000   0.000000
                                    CHANNELS 3 Zrotation Xrotation Yrotation
                                    JOINT RightFinger42
                                    {
                                        OFFSET  -1.858760   0.000000   0.000000
                                        CHANNELS 3 Zrotation Xrotation Yrotation
                                        End Site
                                        {
                                            OFFSET  -1.818440   0.000000   0.000000
                                        }
                                    }
                                }
                            }
                        }
                    }
                }
            }
        }
    }
    JOINT LeftHip
    {
        OFFSET   9.783030   0.000000   0.000000
        CHANNELS 3 Zrotation Xrotation Yrotation
        JOINT LeftKnee
        {
            OFFSET   0.000063 -41.789100   0.000608
            CHANNELS 3 Zrotation Xrotation Yrotation
            JOINT LeftAnkle
            {
                OFFSET   0.000048 -41.133200  -0.000184
                CHANNELS 3 Zrotation Xrotation Yrotation
                JOINT LeftToe
                {
                    OFFSET   0.000000  -6.358960  14.674500
                    CHANNELS 3 Zrotation Xrotation Yrotation
                    End Site
                    {
                        OFFSET   0.000000   0.000000   3.913200
                    }
                }
            }
        }
    }
    JOINT RightHip
    {
        OFFSET  -9.783030   0.000000   0.000000
        CHANNELS 3 Zrotation Xrotation Yrotation
        JOINT RightKnee
        {
            OFFSET   0.000071 -41.789100   0.001239
            CHANNELS 3 Zrotation Xrotation Yrotation
            JOINT RightAnkle
            {
                OFFSET   0.000037 -41.133200  -0.000166
                CHANNELS 3 Zrotation Xrotation Yrotation
                JOINT RightToe
                {
                    OFFSET   0.000000  -6.358960  14.674500
                    CHANNELS 3 Zrotation Xrotation Yrotation
                    End Site
                    {
                        OFFSET   0.000000   0.000000   3.913200
                    }
                }
            }
        }
    }
}
MOTION
Frames: 6
Frame Time:   0.016667
  0.850770  89.462600  -2.461500  -2.482920  -3.739080   2.477310   1.590040   3.377380  -0.840736   3.238050   6.729670  -1.779840  -0.398303  -0.756597  -0.007340  -0.663540  -1.533710   9.048560  -7.666690   2.028830   2.510560 -70.820800   9.420620  -8.313660  -1.990220  -8.513450  -6.110460   2.830660 -10.150400   7.114140  44.520100  34.553300 -67.421000 -24.170600   0.007636   0.003478  -7.085260   0.002112  -0.011213 -29.134400   5.141740  -9.124430 -24.173700  -0.005677   0.001785 -16.921600  -0.000823   0.000202 -27.938400   1.967310  -3.703660 -32.014200  -0.001361  -0.000256 -21.321400  -0.001103  -0.001819 -27.814500  -3.223800   6.084310 -31.910600  -0.000935   0.000634 -21.252500  -0.003781  -0.000857 -30.287800  -3.484100   5.940130 -45.703800  -0.001317  -0.007496 -30.438800  -0.001135  -0.006872   5.413910   0.469339   6.926130  73.537300  -2.679940   6.754570  -2.047810 -10.394100   8.528890 -11.712500 -10.969700   3.262720 -44.119200  34.080300  71.954500  22.116500   0.001617  -0.000603   6.050880   0.003316   0.001389  28.844900   5.343100   9.602240  23.968100  -0.004622  -0.001342  16.777700  -0.003728  -0.001900  27.856400   4.176840   7.846790  32.982300   0.002036  -0.000694  21.966200  -0.000346  -0.002677  28.344700   2.049340   3.792010  35.271700  -0.000081  -0.001218  23.491000  -0.001434   0.007849  37.139600  -0.284233  -0.375424  55.699200  -0.012688   0.001299  37.103400  -0.005443   0.007454   5.414970   5.701570   3.050800   2.012770   0.080166  11.178800  -2.324400  -0.692565   0.584615   0.000000   0.000000  -0.000000   0.608393   2.537660  -4.991120   1.408170   4.045060 -11.307300   1.171500  -2.937430  -3.768140  -0.000000   0.000000  -0.000000
  0.850513  89.462600  -2.472950  -2.481450  -3.747570   2.494100   1.590650   3.386060  -0.843107   3.239580   6.746930  -1.784890  -0.399310  -0.756715  -0.007341  -0.664573  -1.533950   9.060410  -7.666090   2.001620   2.520780 -70.861800   9.354030  -8.311860  -1.971310  -8.615040  -6.115670   2.836150 -10.323200   7.110500  44.337800  34.319500 -67.221300 -24.178300   0.007638   0.003485  -7.089150   0.002109  -0.011225 -29.162500   5.141070  -9.117390 -24.196300  -0.005681   0.001783 -16.937400  -0.000823   0.000202 -27.951900   1.960310  -3.688500 -32.103100  -0.001350  -0.000253 -21.380600  -0.001093  -0.001815 -27.823300  -3.232040   6.097230 -31.975600  -0.000928   0.000639 -21.295700  -0.003773  -0.000853 -30.325500  -3.496040   5.951240 -45.762400  -0.001310  -0.007492 -30.477800  -0.001138  -0.006872   5.404330   0.460668   6.943020  73.534200  -2.676280   6.769360  -2.047220 -10.397300   8.543530 -11.711600 -10.987400   3.299610 -44.118100  34.075300  71.946900  22.111000   0.001612  -0.000591   6.051120   0.003305   0.001389  28.825400   5.341070   9.601420  23.951700  -0.004610  -0.001344  16.766200  -0.003726  -0.001902  27.852600   4.171840   7.838780  32.950300   0.002043  -0.000687  21.944900  -0.000339  -0.002677  28.343800   2.042780   3.780290  35.243700  -0.000078  -0.001214  23.472300  -0.001425   0.007853  37.135300  -0.283872  -0.374965  55.698500  -0.012681   0.001296  37.099100  -0.005440   0.007450   5.414650   5.711390   3.049840   2.012660   0.060600  11.173800  -2.322660  -0.673973   0.574665  -0.000000   0.000000  -0.000000   0.604503   2.547090  -4.991190   1.411310   4.049440 -11.299400   1.169820  -2.942380  -3.794380  -0.000000   0.000000  -0.000000
  0.850256  89.462500  -2.491710  -2.478960  -3.763670   2.521070   1.592850   3.401970  -0.847955   3.244590   6.778590  -1.795230  -0.401954  -0.756833  -0.007344  -0.667261  -1.534160   9.082780  -7.665150   1.955050   2.546410 -70.945500   9.226770  -8.308620  -1.935330  -8.838970  -6.126550   2.823740 -10.748300   7.102430  44.038300  33.931500 -66.889800 -24.198200   0.007640   0.003498  -7.099090   0.002105  -0.011245 -29.205600   5.135960  -9.098010 -24.230500  -0.005689   0.001774 -16.961300  -0.000823   0.000202 -27.979200   1.935400  -3.637770 -32.277500  -0.001319  -0.000245 -21.496800  -0.001068  -0.001805 -27.839900  -3.257740   6.140680 -32.104700  -0.000907   0.000650 -21.381700  -0.003753  -0.000844 -30.407300  -3.530700   5.989800 -45.890300  -0.001292  -0.007485 -30.563000  -0.001145  -0.006872   5.387580   0.445397   6.973230  73.528900  -2.672540   6.798340  -2.050620 -10.421500   8.566260 -11.708700 -11.049700   3.352770 -44.109100  34.040300  71.893700  22.105600   0.001601  -0.000578   6.052800   0.003289   0.001390  28.798000   5.332470   9.595720  23.928500  -0.004585  -0.001352  16.749900  -0.003715  -0.001905  27.846900   4.160050   7.818750  32.898800   0.002057  -0.000672  21.910500  -0.000316  -0.002678  28.342200   2.027680   3.752970  35.199500  -0.000065  -0.001203  23.442900  -0.001408   0.007866  37.130900  -0.283510  -0.374506  55.697700  -0.012668   0.001287  37.094700  -0.005435   0.007439   5.414580   5.721230   3.046640   2.012550   0.041033  11.166300  -2.321040  -0.648196   0.559146   0.000000   0.000000   0.000000   0.598637   2.556520  -4.991250   1.416030   4.062870 -11.288500   1.167180  -2.949980  -3.834900   0.000000   0.000000  -0.000000
  0.850312  89.462500  -2.506070  -2.476860  -3.781290   2.540810   1.597780   3.418480  -0.854180   3.255190   6.811370  -1.808520  -0.407492  -0.756755  -0.007368  -0.672948  -1.534000   9.107770  -7.663820   1.913180   2.587450 -71.044900   9.086690  -8.305920  -1.899100  -9.119470  -6.142270   2.768120 -11.382300   7.092840  43.773300  33.583800 -66.597700 -24.238900   0.007640   0.003519  -7.119420   0.002114  -0.011260 -29.236300   5.122280  -9.063770 -24.254000  -0.005697   0.001757 -16.977800  -0.000821   0.000198 -28.013100   1.884210  -3.536900 -32.487000  -0.001265  -0.000233 -21.636300  -0.001029  -0.001791 -27.859000  -3.307480   6.228590 -32.266100  -0.000870   0.000665 -21.489200  -0.003725  -0.000829 -30.525000  -3.594820   6.068920 -46.075500  -0.001259  -0.007482 -30.686300  -0.001158  -0.006874   5.371720   0.429920   7.004120  73.522900  -2.681080   6.830050  -2.059650 -10.474300   8.580940 -11.706000 -11.137900   3.380140 -44.045600  33.943700  71.747800  22.128700   0.001585  -0.000592   6.065080   0.003285   0.001392  28.785600   5.315800   9.572540  23.917500  -0.004554  -0.001369  16.742200  -0.003690  -0.001909  27.843300   4.144780   7.791570  32.858500   0.002073  -0.000649  21.883700  -0.000274  -0.002671  28.339400   2.007380   3.715850  35.163100  -0.000027  -0.001185  23.418600  -0.001398   0.007890  37.133800  -0.284838  -0.376218  55.702200  -0.012657   0.001272  37.097700  -0.005426   0.007424   5.415350   5.720670   3.039540   2.012450   0.043007  11.162500  -2.321410  -0.638047   0.549069  -0.000000   0.000000  -0.000000   0.595122   2.548930  -4.991210   1.418800   4.088040 -11.284900   1.165380  -2.954690  -3.861460   0.000000   0.000000   0.000000
  0.850698  89.462500  -2.520010  -2.474820  -3.799910   2.558700   1.602750   3.435340  -0.860550   3.265890   6.844820  -1.822120  -0.411393  -0.756210  -0.007395  -0.676749  -1.533560   9.132620  -7.659590   1.873910   2.633920 -71.162100   8.935140  -8.306570  -1.853940  -9.492100  -6.156170   2.687080 -12.168400   7.080410  43.569700  33.325700 -66.345800 -24.267400   0.007639   0.003532  -7.133700   0.002127  -0.011279 -29.254800   5.104590  -9.025640 -24.266000  -0.005709   0.001735 -16.986200  -0.000819   0.000192 -28.047600   1.824000  -3.419180 -32.698100  -0.001196  -0.000218 -21.776900  -0.000980  -0.001771 -27.876700  -3.363500   6.328650 -32.423700  -0.000825   0.000686 -21.594200  -0.003688  -0.000810 -30.640800  -3.665750   6.159710 -46.258700  -0.001218  -0.007478 -30.808300  -0.001174  -0.006878   5.356470   0.416542   7.032680  73.521200  -2.697600   6.868200  -2.079110 -10.566000   8.593730 -11.696500 -11.326700   3.392950 -43.934500  33.793400  71.528400  22.164200   0.001563  -0.000605   6.082090   0.003278   0.001394  28.785900   5.291070   9.527360  23.913300  -0.004515  -0.001394  16.739300  -0.003655  -0.001911  27.841700   4.122480   7.750690  32.826300   0.002095  -0.000620  21.862300  -0.000222  -0.002660  28.339200   1.980990   3.667240  35.142800   0.000000  -0.001161  23.405100  -0.001374   0.007919  37.153900  -0.290779  -0.383761  55.732400  -0.012643   0.001253  37.117800  -0.005416   0.007406   5.416230   5.716530   3.032900   2.011710   0.056820  11.158600  -2.322610  -0.635084   0.540055   0.000000   0.000000   0.000000   0.592478   2.536550  -4.991080   1.421340   4.117490 -11.284300   1.163900  -2.958710  -3.882310  -0.000000   0.000000   0.000000
  0.852940  89.462400  -2.533700  -2.472970  -3.816950   2.574450   1.605020   3.449690  -0.865333   3.270930   6.873330  -1.832290  -0.410137  -0.752394  -0.007400  -0.674347  -1.526000   9.150550  -7.650900   1.845160   2.674750 -71.289700   8.798440  -8.322040  -1.791790  -9.994720  -6.150050   2.572620 -13.066000   7.059300  43.537100  33.252500 -66.233800 -24.258400   0.007636   0.003505  -7.129180   0.002132  -0.011310 -29.248800   5.082270  -8.988820 -24.257500  -0.005727   0.001712 -16.980300  -0.000814   0.000187 -28.072400   1.767220  -3.309480 -32.846100  -0.001117  -0.000202 -21.875400  -0.000923  -0.001743 -27.885500  -3.410980   6.415080 -32.516200  -0.000778   0.000711 -21.655900  -0.003642  -0.000788 -30.705200  -3.723200   6.239860 -46.363000  -0.001172  -0.007469 -30.877800  -0.001193  -0.006885   5.344470   0.410957   7.049700  73.536800  -2.714190   6.914510  -2.116730 -10.707700   8.602430 -11.673500 -11.685700   3.391890 -43.808300  33.597500  71.252000  22.190500   0.001534  -0.000567   6.095220   0.003257   0.001392  28.799300   5.255110   9.459900  23.916700  -0.004470  -0.001426  16.741700  -0.003612  -0.001911  27.843700   4.087500   7.685070  32.810900   0.002124  -0.000585  21.852000  -0.000170  -0.002651  28.343700   1.946390   3.602970  35.149200   0.000000  -0.001137  23.409400  -0.001312   0.007943  37.200000  -0.302756  -0.398929  55.801700  -0.012621   0.001231  37.163900  -0.005407   0.007385   5.415610   5.697580   3.030720   2.013380   0.099245  11.151600  -2.326650  -0.645753   0.531341   0.000000   0.000000   0.000000   0.590821   2.525010  -4.990770   1.424210   4.144620 -11.291400   1.162880  -2.962290  -3.894840  -0.000000   0.000000  -0.000000
